<?xml version="1.0" encoding="utf-8"?>
<!-- Generator: Adobe Illustrator 18.0.0, SVG Export Plug-In . SVG Version: 6.00 Build 0)  -->
<!DOCTYPE svg PUBLIC "-//W3C//DTD SVG 1.1//EN" "http://www.w3.org/Graphics/SVG/1.1/DTD/svg11.dtd">
<svg version="1.1" id="Layer_1" xmlns="http://www.w3.org/2000/svg" xmlns:xlink="http://www.w3.org/1999/xlink" x="0px" y="0px"
	 viewBox="0 0 64 64" enable-background="new 0 0 64 64" xml:space="preserve">
<g>
	<g>
		<g>
			<path fill="#FF6A4D" d="M32,0c17.7,0,32,14.3,32,32S49.7,64,32,64S0,49.7,0,32S14.3,0,32,0z"/>
		</g>
	</g>
	<g>
		<g>
			<polygon fill="#FFD41D" points="50.2,18.8 36,40 36,52 28,49 28,40 13.8,18.8 			"/>
		</g>
	</g>
	<g>
		<g>
			<polygon fill="#FFE91F" points="32,50.5 32,18.8 13.8,18.8 28,40 28,49 			"/>
		</g>
	</g>
	<g>
		<g>
			<path fill="#F9B01E" d="M32,13c10.5,0,19,2,19,4.5c0,0.4-0.3,0.9-0.8,1.3C47.9,20.6,40.6,22,32,22s-15.9-1.4-18.2-3.2
				c-0.5-0.4-0.8-0.8-0.8-1.3C13,15,21.5,13,32,13z"/>
		</g>
	</g>
	<g>
		<g>
			<path fill="#F79623" d="M32,13c-10.5,0-19,2-19,4.5c0,0.4,0.3,0.9,0.8,1.3C16.1,20.6,23.4,22,32,22V13z"/>
		</g>
	</g>
</g>
</svg>
